<svg xmlns="http://www.w3.org/2000/svg" viewBox="0 0 600 160" width="600" height="160">
  <defs>
    <linearGradient id="bg" x1="0" y1="0" x2="600" y2="160" gradientUnits="userSpaceOnUse">
      <stop offset="0%" stop-color="#0a0a0f"/>
      <stop offset="100%" stop-color="#111118"/>
    </linearGradient>
  </defs>
  
  <!-- Background -->
  <rect width="600" height="160" rx="16" fill="url(#bg)"/>
  <rect x="1" y="1" width="598" height="158" rx="15" fill="none" stroke="#2a2a3a" stroke-width="1"/>
  
  <!-- Icon box -->
  <g transform="translate(40, 40)">
    <rect width="80" height="80" rx="18" fill="#151520"/>
    <rect x="2" y="2" width="76" height="76" rx="16" fill="none" stroke="#e53e3e" stroke-width="2.5"/>
    <!-- Trash icon: exact same as app favicon (viewBox 0 0 32 32), scaled 2x centered in 80x80 -->
    <g transform="translate(8, 8) scale(2)" stroke="white" stroke-linecap="round" stroke-linejoin="round" fill="none">
      <path d="M10 13h12l-1.5 11a1 1 0 01-1 .9H12.5a1 1 0 01-1-.9z" stroke-width="1.4"/>
      <line x1="8" y1="13" x2="24" y2="13" stroke-width="1.6"/>
      <path d="M13.5 11.5a.6.6 0 01.6-.5h3.8a.6.6 0 01.6.5V13h-5z" stroke-width="1.3"/>
      <line x1="14" y1="16.5" x2="14" y2="21.5" stroke-width="1.3" opacity="0.6"/>
      <line x1="16" y1="16.5" x2="16" y2="21.5" stroke-width="1.3" opacity="0.6"/>
      <line x1="18" y1="16.5" x2="18" y2="21.5" stroke-width="1.3" opacity="0.6"/>
    </g>
  </g>
  
  <!-- Text -->
  <text x="145" y="85" font-family="Inter, -apple-system, BlinkMacSystemFont, 'Segoe UI', sans-serif" font-size="48" font-weight="800" fill="#e8e8f0" letter-spacing="-1">
    Remov<tspan fill="#e53e3e">arr</tspan>
  </text>
  
  <!-- Tagline -->
  <text x="148" y="112" font-family="'JetBrains Mono', 'SF Mono', 'Fira Code', monospace" font-size="14" fill="#6b6b80" letter-spacing="0.5">
    Clean up your media library
  </text>
</svg>
