<svg xmlns="http://www.w3.org/2000/svg" viewBox="0 0 600 160" width="600" height="160">
  <defs>
    <linearGradient id="bg" x1="0" y1="0" x2="600" y2="160" gradientUnits="userSpaceOnUse">
      <stop offset="0%" stop-color="#0a0a0f"/>
      <stop offset="100%" stop-color="#111118"/>
    </linearGradient>
  </defs>
  
  <!-- Background -->
  <rect width="600" height="160" rx="16" fill="url(#bg)"/>
  <rect x="1" y="1" width="598" height="158" rx="15" fill="none" stroke="#2a2a3a" stroke-width="1"/>
  
  <!-- Icon -->
  <g transform="translate(40, 40)">
    <rect width="80" height="80" rx="18" fill="#151520"/>
    <rect x="2" y="2" width="76" height="76" rx="16" fill="none" stroke="#e53e3e" stroke-width="2.5"/>
    <g stroke="white" stroke-linecap="round" stroke-linejoin="round" fill="none" transform="translate(15, 14)">
      <path d="M8 22h34l-4 28a2.5 2.5 0 01-2.5 2.2H14.5A2.5 2.5 0 0112 50z" stroke-width="3"/>
      <line x1="4" y1="22" x2="46" y2="22" stroke-width="3.5"/>
      <path d="M17 17a1.5 1.5 0 011.5-1.3h13a1.5 1.5 0 011.5 1.3V22H17z" stroke-width="2.8"/>
      <line x1="19" y1="30" x2="19" y2="43" stroke-width="2.8" opacity="0.5"/>
      <line x1="25" y1="30" x2="25" y2="43" stroke-width="2.8" opacity="0.5"/>
      <line x1="31" y1="30" x2="31" y2="43" stroke-width="2.8" opacity="0.5"/>
    </g>
  </g>
  
  <!-- Text -->
  <text x="145" y="85" font-family="Inter, -apple-system, BlinkMacSystemFont, 'Segoe UI', sans-serif" font-size="48" font-weight="800" fill="#e8e8f0" letter-spacing="-1">
    Remov<tspan fill="#e53e3e">arr</tspan>
  </text>
  
  <!-- Tagline -->
  <text x="148" y="112" font-family="'JetBrains Mono', 'SF Mono', 'Fira Code', monospace" font-size="14" fill="#6b6b80" letter-spacing="0.5">
    Clean up your media library
  </text>
</svg>
